<svg width="24" height="23" viewBox="0 0 24 23" fill="none" xmlns="http://www.w3.org/2000/svg">
<path d="M23.8422 20.9759C22.3188 18.3198 19.9399 16.2502 17.0886 15.1003C18.5065 14.0438 19.5539 12.571 20.0824 10.8904C20.6108 9.20975 20.5936 7.40654 20.0331 5.73619C19.4726 4.06583 18.3973 2.613 16.9594 1.5835C15.5216 0.55399 13.7941 0 12.0217 0C10.2492 0 8.52174 0.55399 7.08387 1.5835C5.64601 2.613 4.57067 4.06583 4.01018 5.73619C3.44969 7.40654 3.43247 9.20975 3.96095 10.8904C4.48942 12.571 5.53682 14.0438 6.95475 15.1003C4.10343 16.2502 1.72456 18.3198 0.201109 20.9759C0.10671 21.1267 0.0437939 21.2948 0.0161004 21.4702C-0.0115932 21.6456 -0.00349872 21.8248 0.0399026 21.997C0.083304 22.1693 0.161126 22.3311 0.268743 22.4729C0.376359 22.6147 0.511573 22.7335 0.666346 22.8223C0.821119 22.9112 0.992291 22.9682 1.16969 22.99C1.34708 23.0118 1.52708 22.9979 1.69898 22.9492C1.87087 22.9006 2.03116 22.818 2.17032 22.7066C2.30947 22.5951 2.42464 22.457 2.50899 22.3005C4.52242 18.8433 8.07814 16.7814 12.0217 16.7814C15.9652 16.7814 19.5209 18.8444 21.5343 22.3005C21.7171 22.5925 22.0071 22.8024 22.3428 22.8859C22.6786 22.9694 23.0339 22.9199 23.3337 22.7479C23.6334 22.5758 23.854 22.2948 23.9489 21.9641C24.0438 21.6334 24.0055 21.2791 23.8422 20.9759ZM6.24361 8.39234C6.24361 7.2571 6.58249 6.14736 7.21739 5.20345C7.85229 4.25953 8.75469 3.52384 9.81049 3.0894C10.8663 2.65496 12.0281 2.5413 13.1489 2.76277C14.2697 2.98424 15.2993 3.53091 16.1073 4.33365C16.9154 5.13638 17.4657 6.15913 17.6887 7.27255C17.9116 8.38597 17.7972 9.54007 17.3599 10.5889C16.9225 11.6377 16.182 12.5342 15.2318 13.1649C14.2816 13.7956 13.1644 14.1322 12.0217 14.1322C10.4898 14.1305 9.02112 13.5252 7.93791 12.4491C6.8547 11.373 6.24537 9.91411 6.24361 8.39234Z" fill="#393E46"/>
</svg>
