<svg width="23" height="23" viewBox="0 0 23 23" fill="none" xmlns="http://www.w3.org/2000/svg">
<path d="M20.7784 22.6401L13.4602 15.3115C12.8068 15.835 12.0554 16.2494 11.206 16.5548C10.3565 16.8601 9.45265 17.0128 8.49432 17.0128C6.12027 17.0128 4.11125 16.1892 2.46727 14.542C0.823295 12.8948 0.000871212 10.883 0 8.5064C0 6.12897 0.822424 4.1171 2.46727 2.47078C4.11212 0.824466 6.12114 0.000872451 8.49432 0C10.8684 0 12.8774 0.823594 14.5214 2.47078C16.1653 4.11797 16.9878 6.12984 16.9886 8.5064C16.9886 9.4661 16.8362 10.3713 16.5312 11.2219C16.2263 12.0725 15.8125 12.825 15.2898 13.4794L22.6406 20.8407C22.8802 21.0806 23 21.3751 23 21.724C23 22.073 22.8693 22.3784 22.608 22.6401C22.3684 22.88 22.0634 23 21.6932 23C21.3229 23 21.018 22.88 20.7784 22.6401ZM8.49432 14.3954C10.1278 14.3954 11.5166 13.8227 12.6605 12.6772C13.8044 11.5316 14.3759 10.1414 14.375 8.5064C14.375 6.87055 13.803 5.47987 12.6591 4.33434C11.5152 3.18881 10.127 2.61648 8.49432 2.61735C6.8608 2.61735 5.47208 3.19012 4.32818 4.33565C3.18428 5.48118 2.61277 6.87143 2.61364 8.5064C2.61364 10.1422 3.18559 11.5329 4.32949 12.6785C5.47339 13.824 6.86167 14.3963 8.49432 14.3954Z" fill="#393E46"/>
</svg>
