<svg width="25" height="23" viewBox="0 0 25 23" fill="none" xmlns="http://www.w3.org/2000/svg">
<path d="M10.5932 20.8704C10.5932 21.2916 10.4689 21.7033 10.2361 22.0535C10.0033 22.4037 9.67244 22.6767 9.28531 22.8379C8.89818 22.9991 8.47219 23.0413 8.06122 22.9591C7.65024 22.8769 7.27274 22.6741 6.97644 22.3762C6.68014 22.0784 6.47836 21.6989 6.39662 21.2858C6.31487 20.8727 6.35682 20.4445 6.51718 20.0554C6.67753 19.6663 6.94908 19.3337 7.29749 19.0996C7.6459 18.8656 8.05552 18.7407 8.47454 18.7407C9.03644 18.7407 9.57532 18.9651 9.97264 19.3645C10.37 19.7639 10.5932 20.3056 10.5932 20.8704ZM19.4914 18.7407C19.0724 18.7407 18.6628 18.8656 18.3144 19.0996C17.966 19.3337 17.6944 19.6663 17.5341 20.0554C17.3737 20.4445 17.3318 20.8727 17.4135 21.2858C17.4953 21.6989 17.697 22.0784 17.9933 22.3762C18.2896 22.6741 18.6671 22.8769 19.0781 22.9591C19.4891 23.0413 19.9151 22.9991 20.3022 22.8379C20.6893 22.6767 21.0202 22.4037 21.253 22.0535C21.4858 21.7033 21.6101 21.2916 21.6101 20.8704C21.6101 20.3056 21.3869 19.7639 20.9895 19.3645C20.5922 18.9651 20.0533 18.7407 19.4914 18.7407ZM24.9438 5.91292L22.0529 15.3578C21.8683 15.9686 21.4927 16.5033 20.9819 16.8826C20.471 17.2618 19.8521 17.4653 19.2171 17.463H8.78492C8.14076 17.4609 7.51462 17.249 7.00032 16.8591C6.48601 16.4692 6.11125 15.9223 5.93218 15.3003L2.31037 2.55556H1.27118C0.934043 2.55556 0.610713 2.42093 0.37232 2.1813C0.133928 1.94167 0 1.61667 0 1.27778C0 0.93889 0.133928 0.613882 0.37232 0.374252C0.610713 0.134623 0.934043 0 1.27118 0H2.62923C3.08933 0.00142881 3.53658 0.152782 3.90386 0.431354C4.27114 0.709927 4.53867 1.1007 4.66629 1.54505L5.43854 4.25926H23.7287C23.9277 4.25924 24.1238 4.30616 24.3014 4.39624C24.4791 4.48633 24.6332 4.61705 24.7513 4.77791C24.8695 4.93877 24.9485 5.12526 24.9819 5.3224C25.0154 5.51953 25.0023 5.72179 24.9438 5.91292ZM22.0073 6.81482H6.16417L8.37708 14.5986C8.40242 14.6877 8.45594 14.766 8.52954 14.8217C8.60313 14.8774 8.69279 14.9075 8.78492 14.9074H19.2171C19.3078 14.9076 19.3961 14.8785 19.4692 14.8245C19.5422 14.7704 19.596 14.6942 19.6228 14.6071L22.0073 6.81482Z" fill="#393E46"/>
</svg>
